<svg id="Layer_1" data-name="Layer 1" xmlns="http://www.w3.org/2000/svg" viewBox="0 0 42.26 42.82"><path d="M24.21,65.08a3.68,3.68,0,0,1-3.68-3.68V27a3.68,3.68,0,0,1,3.68-3.68,3.64,3.64,0,0,1,1.66.41l33.85,17.2a3.67,3.67,0,0,1,0,6.55L25.87,64.68A3.63,3.63,0,0,1,24.21,65.08Z" transform="translate(-20 -22.79)" style="fill:#ff0"/><path d="M24.21,23.85h0a3.1,3.1,0,0,1,1.42.35L59.48,41.4a3.15,3.15,0,0,1,0,5.61L25.63,64.21a3.09,3.09,0,0,1-1.42.34,3.15,3.15,0,0,1-3.15-3.15V27a3.15,3.15,0,0,1,3.15-3.15m0-1.06A4.21,4.21,0,0,0,20,27V61.4a4.21,4.21,0,0,0,4.21,4.21,4.12,4.12,0,0,0,1.9-.46L60,48a4.2,4.2,0,0,0,0-7.5L26.11,23.25a4.25,4.25,0,0,0-1.9-.46Z" transform="translate(-20 -22.79)"/></svg>